<svg width="154" height="38" viewBox="0 0 154 38" fill="none" xmlns="http://www.w3.org/2000/svg">
<g clip-path="url(#clip0_1_10)">
<path d="M21.5402 8.00014L17.4989 14.2354L13.4575 8.00014H-0.000686646L17.4989 34.9999L34.9984 8.00014H21.5402Z" fill="#41B883"/>
<path d="M21.5402 8.00013L17.4989 14.2354L13.4576 8.00013H6.99916L17.4989 24.1996L27.9986 8.00013H21.5402Z" fill="#34495E"/>
</g>
<path d="M43.096 30C42.8613 30 42.6693 29.9253 42.52 29.776C42.3707 29.6267 42.296 29.4347 42.296 29.2V12.048H36.472C36.2587 12.048 36.0773 11.9733 35.928 11.824C35.7787 11.6747 35.704 11.4933 35.704 11.28V8.4C35.704 8.16533 35.7787 7.97333 35.928 7.824C36.0773 7.67467 36.2587 7.6 36.472 7.6H53.24C53.4747 7.6 53.6667 7.67467 53.816 7.824C53.9653 7.97333 54.04 8.16533 54.04 8.4V11.28C54.04 11.4933 53.9653 11.6747 53.816 11.824C53.6667 11.9733 53.4747 12.048 53.24 12.048H47.448V29.2C47.448 29.4347 47.3733 29.6267 47.224 29.776C47.0747 29.9253 46.8827 30 46.648 30H43.096ZM55.6278 30C55.4144 30 55.2331 29.9253 55.0838 29.776C54.9344 29.6267 54.8598 29.4347 54.8598 29.2V14.16C54.8598 13.9467 54.9344 13.7653 55.0838 13.616C55.2331 13.4453 55.4144 13.36 55.6278 13.36H58.7638C58.9771 13.36 59.1584 13.4453 59.3078 13.616C59.4784 13.7653 59.5638 13.9467 59.5638 14.16V15.44C60.0971 14.7787 60.7478 14.2667 61.5158 13.904C62.3051 13.5413 63.2118 13.36 64.2358 13.36H65.6118C65.8251 13.36 66.0064 13.4347 66.1558 13.584C66.3051 13.7333 66.3798 13.9253 66.3798 14.16V16.912C66.3798 17.1467 66.3051 17.3387 66.1558 17.488C66.0064 17.6373 65.8251 17.712 65.6118 17.712H62.7958C61.8571 17.712 61.1211 17.9787 60.5878 18.512C60.0544 19.024 59.7878 19.76 59.7878 20.72V29.2C59.7878 29.4347 59.7131 29.6267 59.5638 29.776C59.4144 29.9253 59.2224 30 58.9878 30H55.6278ZM73.3808 30.32C72.2501 30.32 71.2368 30.1067 70.3408 29.68C69.4448 29.232 68.7301 28.6347 68.1968 27.888C67.6634 27.1413 67.3968 26.3093 67.3968 25.392C67.3968 23.8773 68.0048 22.6827 69.2208 21.808C70.4581 20.9333 72.0794 20.336 74.0848 20.016L78.2768 19.408V18.832C78.2768 18 78.0848 17.36 77.7008 16.912C77.3168 16.464 76.6448 16.24 75.6848 16.24C74.9808 16.24 74.4154 16.3787 73.9888 16.656C73.5621 16.9333 73.2314 17.296 72.9968 17.744C72.8261 18.0213 72.5808 18.16 72.2608 18.16H69.2208C68.9861 18.16 68.8048 18.096 68.6768 17.968C68.5488 17.8187 68.4954 17.648 68.5168 17.456C68.5168 17.0933 68.6554 16.6667 68.9328 16.176C69.2101 15.6853 69.6368 15.2053 70.2128 14.736C70.7888 14.2453 71.5248 13.84 72.4208 13.52C73.3168 13.2 74.4154 13.04 75.7168 13.04C77.0608 13.04 78.2128 13.2 79.1728 13.52C80.1328 13.84 80.9008 14.288 81.4768 14.864C82.0528 15.44 82.4794 16.112 82.7568 16.88C83.0341 17.6267 83.1728 18.4373 83.1728 19.312V29.2C83.1728 29.4347 83.0981 29.6267 82.9488 29.776C82.7994 29.9253 82.6074 30 82.3728 30H79.2368C79.0234 30 78.8421 29.9253 78.6928 29.776C78.5434 29.6267 78.4688 29.4347 78.4688 29.2V28.016C78.1914 28.4213 77.8181 28.8053 77.3488 29.168C76.8794 29.5093 76.3141 29.7867 75.6528 30C75.0127 30.2133 74.2554 30.32 73.3808 30.32ZM74.6608 26.992C75.3648 26.992 75.9941 26.8427 76.5488 26.544C77.1034 26.2453 77.5408 25.7867 77.8608 25.168C78.1808 24.5493 78.3408 23.7707 78.3408 22.832V22.288L75.3648 22.768C74.2128 22.96 73.3701 23.248 72.8368 23.632C72.3034 24.016 72.0368 24.4853 72.0368 25.04C72.0368 25.4453 72.1541 25.7973 72.3888 26.096C72.6448 26.3947 72.9754 26.6187 73.3808 26.768C73.7861 26.9173 74.2128 26.992 74.6608 26.992ZM94.4392 30.32C92.8819 30.32 91.5059 30.032 90.3113 29.456C89.1379 28.88 88.2099 28.048 87.5273 26.96C86.8446 25.8507 86.4713 24.528 86.4073 22.992C86.3859 22.6507 86.3753 22.224 86.3753 21.712C86.3753 21.1787 86.3859 20.7413 86.4073 20.4C86.4713 18.8427 86.8339 17.52 87.4953 16.432C88.1779 15.3227 89.1166 14.48 90.3113 13.904C91.5059 13.328 92.8819 13.04 94.4392 13.04C95.8686 13.04 97.0846 13.2427 98.0873 13.648C99.0899 14.032 99.9113 14.5227 100.551 15.12C101.191 15.7173 101.661 16.3467 101.959 17.008C102.279 17.648 102.45 18.2133 102.471 18.704C102.493 18.9173 102.418 19.1093 102.247 19.28C102.098 19.4293 101.917 19.504 101.703 19.504H98.2793C98.0659 19.504 97.8953 19.4507 97.7673 19.344C97.6606 19.216 97.5539 19.0453 97.4473 18.832C97.1486 18.0853 96.7646 17.552 96.2953 17.232C95.8259 16.912 95.2393 16.752 94.5353 16.752C93.5753 16.752 92.8179 17.0613 92.2633 17.68C91.7086 18.2987 91.4099 19.2587 91.3673 20.56C91.3459 21.392 91.3459 22.1493 91.3673 22.832C91.4313 24.1547 91.7299 25.1147 92.2633 25.712C92.8179 26.3093 93.5753 26.608 94.5353 26.608C95.2819 26.608 95.8793 26.448 96.3273 26.128C96.7753 25.808 97.1486 25.2747 97.4473 24.528C97.5326 24.3147 97.6393 24.1547 97.7673 24.048C97.8953 23.92 98.0659 23.856 98.2793 23.856H101.703C101.917 23.856 102.098 23.9413 102.247 24.112C102.418 24.2613 102.493 24.4427 102.471 24.656C102.45 25.0187 102.343 25.4453 102.151 25.936C101.981 26.4267 101.693 26.928 101.287 27.44C100.903 27.952 100.402 28.432 99.7833 28.88C99.1646 29.3067 98.4073 29.6587 97.5113 29.936C96.6366 30.192 95.6126 30.32 94.4392 30.32ZM106.41 30C106.175 30 105.983 29.9253 105.834 29.776C105.684 29.6267 105.61 29.4347 105.61 29.2V8.08C105.61 7.84533 105.684 7.65333 105.834 7.504C105.983 7.35467 106.175 7.28 106.41 7.28H109.546C109.759 7.28 109.94 7.35467 110.09 7.504C110.239 7.65333 110.314 7.84533 110.314 8.08V18.896L115.242 13.904C115.412 13.7547 115.562 13.6267 115.69 13.52C115.839 13.4133 116.063 13.36 116.362 13.36H119.978C120.191 13.36 120.362 13.4347 120.49 13.584C120.618 13.712 120.682 13.872 120.682 14.064C120.682 14.1493 120.66 14.2453 120.618 14.352C120.575 14.4587 120.5 14.544 120.394 14.608L114.218 20.816L121.194 28.784C121.386 28.9547 121.482 29.1253 121.482 29.296C121.482 29.488 121.407 29.6587 121.258 29.808C121.13 29.936 120.97 30 120.778 30H117.066C116.746 30 116.511 29.9467 116.362 29.84C116.234 29.7333 116.084 29.6053 115.914 29.456L110.314 23.184V29.2C110.314 29.4347 110.239 29.6267 110.09 29.776C109.94 29.9253 109.759 30 109.546 30H106.41ZM130.44 30.32C127.987 30.32 126.035 29.6373 124.584 28.272C123.155 26.9067 122.397 24.9227 122.312 22.32C122.312 22.1493 122.312 21.9253 122.312 21.648C122.312 21.3493 122.312 21.1147 122.312 20.944C122.397 19.3013 122.771 17.8933 123.432 16.72C124.093 15.5253 125.021 14.6187 126.216 14C127.411 13.36 128.808 13.04 130.408 13.04C132.2 13.04 133.693 13.4133 134.888 14.16C136.104 14.8853 137.011 15.888 137.608 17.168C138.227 18.4267 138.536 19.8773 138.536 21.52V22.256C138.536 22.4693 138.451 22.6507 138.28 22.8C138.131 22.9493 137.949 23.024 137.736 23.024H127.272C127.272 23.0453 127.272 23.088 127.272 23.152C127.272 23.1947 127.272 23.2373 127.272 23.28C127.293 23.9627 127.421 24.592 127.656 25.168C127.912 25.7227 128.264 26.1707 128.712 26.512C129.181 26.8533 129.736 27.024 130.376 27.024C130.909 27.024 131.347 26.9493 131.688 26.8C132.029 26.6507 132.307 26.4693 132.52 26.256C132.755 26.0427 132.925 25.8613 133.032 25.712C133.224 25.4987 133.373 25.3707 133.48 25.328C133.608 25.264 133.8 25.232 134.056 25.232H137.384C137.597 25.232 137.768 25.296 137.896 25.424C138.045 25.5307 138.109 25.6907 138.088 25.904C138.067 26.2453 137.885 26.672 137.544 27.184C137.224 27.6747 136.744 28.1653 136.104 28.656C135.464 29.1253 134.664 29.52 133.704 29.84C132.765 30.16 131.677 30.32 130.44 30.32ZM127.272 20.112H133.544V20.048C133.544 19.28 133.416 18.6187 133.16 18.064C132.925 17.488 132.573 17.04 132.104 16.72C131.635 16.4 131.069 16.24 130.408 16.24C129.747 16.24 129.181 16.4 128.712 16.72C128.243 17.04 127.88 17.488 127.624 18.064C127.389 18.6187 127.272 19.28 127.272 20.048V20.112ZM142.503 30C142.289 30 142.108 29.9253 141.959 29.776C141.809 29.6267 141.735 29.4347 141.735 29.2V14.16C141.735 13.9467 141.809 13.7653 141.959 13.616C142.108 13.4453 142.289 13.36 142.503 13.36H145.639C145.852 13.36 146.033 13.4453 146.183 13.616C146.353 13.7653 146.439 13.9467 146.439 14.16V15.44C146.972 14.7787 147.623 14.2667 148.391 13.904C149.18 13.5413 150.087 13.36 151.111 13.36H152.487C152.7 13.36 152.881 13.4347 153.031 13.584C153.18 13.7333 153.255 13.9253 153.255 14.16V16.912C153.255 17.1467 153.18 17.3387 153.031 17.488C152.881 17.6373 152.7 17.712 152.487 17.712H149.671C148.732 17.712 147.996 17.9787 147.463 18.512C146.929 19.024 146.663 19.76 146.663 20.72V29.2C146.663 29.4347 146.588 29.6267 146.439 29.776C146.289 29.9253 146.097 30 145.863 30H142.503Z" fill="#34495E"/>
<defs>
<clipPath id="clip0_1_10">
<rect width="35" height="27" fill="white" transform="translate(0 8)"/>
</clipPath>
</defs>
</svg>
